<?xml version="1.0" standalone="no"?>
<!DOCTYPE svg PUBLIC "-//W3C//DTD SVG 20010904//EN"
 "http://www.w3.org/TR/2001/REC-SVG-20010904/DTD/svg10.dtd">
<svg version="1.0" xmlns="http://www.w3.org/2000/svg"
 width="201.000000pt" height="276.000000pt" viewBox="0 0 201.000000 276.000000"
 preserveAspectRatio="xMidYMid meet">

<g transform="translate(0.000000,276.000000) scale(0.100000,-0.100000)"
fill="#000000" stroke="none">
<path d="M0 2722 c0 -31 4 -38 20 -39 11 -1 20 4 20 13 0 8 8 14 19 14 10 0
26 11 35 25 l16 25 -55 0 -55 0 0 -38z"/>
<path d="M410 2753 c-42 -17 -201 -172 -276 -269 -30 -40 -54 -75 -54 -78 0
-4 -10 -23 -23 -44 -60 -97 -57 -22 -57 -1245 l0 -1118 87 3 88 3 17 37 c21
44 56 68 69 47 5 -9 1 -27 -11 -47 -11 -18 -20 -35 -20 -38 0 -2 35 -4 78 -4
l77 1 36 58 c60 95 64 116 50 218 -7 48 -17 99 -23 113 -14 35 -20 320 -6 320
7 0 8 14 4 40 -6 36 -4 40 19 46 17 4 28 16 33 38 5 18 14 30 23 29 17 -3 63
73 53 89 -4 6 -3 8 2 5 16 -9 27 4 55 63 24 50 26 66 25 167 -1 87 -5 115 -17
130 -9 10 -26 41 -38 68 -12 28 -35 64 -50 80 -46 48 -74 119 -33 82 11 -10
39 -18 68 -19 l49 -3 -1 37 c0 20 -7 44 -14 53 -7 8 -11 18 -8 20 7 7 215 14
222 8 3 -4 1 -12 -5 -19 -15 -18 10 -56 33 -48 16 5 18 -2 18 -64 0 -62 -3
-73 -30 -107 -16 -21 -30 -42 -30 -46 0 -12 17 -11 25 1 3 5 19 10 34 10 39 0
75 32 88 77 15 49 7 214 -11 257 -13 32 -13 35 12 53 16 12 23 25 20 35 -5 12
-21 15 -87 12 -80 -4 -124 6 -191 41 -14 7 -43 16 -65 20 -75 13 -92 35 -58
75 21 24 33 26 33 5 0 -20 16 -19 24 1 9 22 8 24 -9 24 -8 0 -15 4 -15 8 0 4
21 9 48 10 47 2 120 19 92 21 -8 1 -23 13 -33 26 -20 28 -16 32 38 37 25 3 30
7 30 30 1 47 85 135 188 195 138 82 85 82 -83 0 -130 -63 -419 -254 -480 -317
-3 -3 -42 -40 -87 -82 -83 -78 -204 -211 -257 -281 -33 -44 -49 -43 -17 1 12
17 21 33 21 37 0 28 311 342 448 453 124 100 110 115 -17 18 -29 -23 -61 -45
-70 -51 -26 -16 -161 -133 -220 -191 -52 -51 -71 -64 -71 -46 0 12 173 187
240 244 30 26 89 74 130 107 41 34 86 72 100 85 14 13 40 31 58 40 18 10 65
38 105 64 40 26 98 60 130 76 55 28 71 49 45 59 -7 2 0 8 15 12 16 4 33 3 38
-2 7 -7 53 -9 119 -5 84 4 120 1 159 -12 80 -26 121 -18 121 24 0 9 9 34 20
55 13 25 18 50 15 66 -5 24 -4 26 19 22 16 -3 38 4 62 21 21 14 46 26 56 26 9
0 22 9 28 19 10 20 1 20 -587 20 -329 0 -605 -3 -613 -6z m258 -365 c-10 -20
-24 -23 -33 -8 -3 6 1 10 10 10 9 0 13 5 10 10 -3 6 -3 20 1 33 l8 22 6 -25
c4 -14 3 -33 -2 -42z m52 -628 c20 -5 45 -17 55 -25 20 -15 20 -15 1 -30 -12
-9 -41 -15 -77 -15 -38 0 -61 5 -69 15 -7 8 -18 15 -25 15 -13 0 -27 35 -17
44 9 9 94 7 132 -4z m-311 -743 c28 -23 32 -34 36 -87 2 -33 6 -64 9 -69 4 -5
-4 -25 -16 -45 -29 -46 -60 -44 -99 4 -27 33 -29 43 -30 125 -1 50 -1 93 0 96
3 17 71 1 100 -24z m6 -257 c-3 -5 -19 -10 -36 -10 -16 0 -29 5 -29 10 0 6 16
10 36 10 21 0 33 -4 29 -10z"/>
<path d="M1680 2745 c0 -16 30 -35 55 -35 9 0 30 -9 46 -21 21 -15 38 -19 56
-14 24 6 25 4 19 -21 -4 -16 -2 -34 7 -48 8 -11 20 -38 26 -59 9 -25 22 -42
38 -48 32 -12 73 -12 73 1 0 6 -7 10 -15 10 -8 0 -15 5 -15 10 0 6 9 10 20 10
19 0 20 7 20 115 l0 115 -165 0 c-138 0 -165 -2 -165 -15z m260 -185 c0 -5 -4
-10 -10 -10 -5 0 -10 5 -10 10 0 6 5 10 10 10 6 0 10 -4 10 -10z"/>
<path d="M1997 2463 c-5 -7 -23 -13 -40 -13 -43 0 -53 -9 -61 -52 -4 -22 -17
-45 -33 -57 -17 -15 -24 -27 -20 -41 4 -17 2 -20 -13 -15 -22 7 -72 -15 -67
-29 2 -6 21 -20 43 -31 21 -11 75 -56 118 -99 44 -44 81 -75 84 -68 2 6 -14
39 -35 73 -69 110 -93 162 -88 192 5 31 55 87 77 87 25 0 50 26 46 46 -2 13
-6 15 -11 7z"/>
<path d="M1500 2416 c0 -21 47 -74 81 -91 15 -8 47 -15 71 -15 36 0 45 4 54
25 10 21 9 26 -12 40 -30 19 -31 19 -37 -5 -6 -24 -45 -27 -53 -5 -4 8 -14 15
-24 15 -9 0 -29 11 -44 25 -31 29 -36 30 -36 11z"/>
<path d="M1420 2405 c0 -8 5 -15 10 -15 6 0 10 -9 10 -21 0 -18 -4 -20 -32
-16 -18 3 -51 10 -73 16 -22 6 -60 8 -84 4 l-45 -6 41 -36 c46 -41 98 -127 83
-136 -21 -13 -9 -34 25 -45 40 -13 43 -20 15 -45 -25 -23 -25 -35 -1 -35 29 0
33 -15 11 -43 -21 -27 -26 -42 -11 -33 17 11 116 -16 139 -37 44 -41 32 -52
-105 -97 -71 -23 -153 -44 -183 -47 -30 -4 -58 -10 -61 -16 -4 -5 -22 -12 -40
-16 l-34 -7 0 -99 c0 -55 4 -111 9 -125 11 -30 27 -117 26 -147 0 -17 6 -23
21 -23 12 0 37 -17 55 -37 19 -20 34 -34 34 -29 0 18 -41 94 -53 99 -21 8 -32
94 -15 114 9 12 10 17 2 20 -20 7 -4 37 27 56 17 9 28 21 25 26 -15 24 112 23
141 -1 7 -6 23 -8 35 -5 13 3 31 0 42 -8 17 -13 17 -15 2 -36 -21 -31 -4 -54
27 -36 41 23 77 61 77 81 1 20 1 20 20 -3 11 -13 20 -38 20 -57 0 -27 -4 -34
-20 -34 -22 0 -26 -10 -10 -26 7 -7 4 -16 -10 -29 -11 -10 -20 -23 -20 -29 0
-6 -9 -29 -21 -51 -12 -21 -32 -71 -45 -111 -12 -39 -32 -87 -42 -106 l-19
-34 33 -50 c19 -27 34 -53 34 -59 0 -17 65 -145 73 -145 5 0 28 -13 52 -30 68
-47 78 -39 51 38 -15 42 -11 118 7 129 6 3 30 8 54 10 34 3 45 0 50 -14 4 -9
2 -18 -3 -20 -9 -3 -7 -172 3 -231 3 -19 0 -43 -6 -55 -9 -18 -17 -70 -22
-147 -1 -23 -31 -90 -40 -90 -4 0 -10 -13 -14 -30 -4 -16 -16 -37 -28 -45 -16
-11 -22 -27 -23 -58 -2 -63 -16 -131 -28 -139 -6 -4 -21 2 -32 13 -16 15 -29
19 -44 14 -17 -6 -28 -1 -46 21 l-23 29 -1 -27 c0 -16 -4 -28 -10 -28 -5 0
-10 8 -10 18 0 30 -31 48 -82 50 -38 1 -50 -2 -58 -18 -13 -24 -38 -26 -68 -4
-24 16 -42 12 -42 -11 0 -7 -14 -23 -30 -35 -35 -25 -50 -18 -75 30 -11 21
-20 26 -45 25 -17 -1 -34 4 -38 11 -6 10 -15 6 -39 -16 -38 -35 -43 -37 -43
-10 0 24 -13 25 -46 4 -30 -20 -145 -29 -155 -13 -13 22 -30 -2 -24 -32 10
-44 -16 -89 -81 -143 -31 -25 -60 -46 -65 -46 -4 0 -13 -9 -19 -20 -10 -19 -8
-20 105 -20 97 0 115 2 115 15 0 19 35 89 63 127 15 20 29 28 52 28 49 0 93
-57 66 -86 -5 -5 -18 -26 -30 -47 l-21 -37 113 0 c127 0 152 8 113 34 -14 9
-26 21 -26 26 0 19 44 50 71 50 39 0 100 -59 92 -88 -5 -22 -4 -22 133 -22
102 1 134 3 121 11 -10 6 -31 12 -48 14 -40 6 -104 43 -119 70 -6 12 -10 37
-8 56 3 31 6 34 41 37 25 2 46 -3 66 -17 16 -12 33 -21 38 -21 4 0 30 -22 58
-48 27 -26 68 -59 90 -74 l40 -28 188 0 187 0 -2 948 -3 947 -41 60 c-55 79
-85 110 -182 183 -44 34 -83 67 -85 74 -4 9 -11 7 -25 -9 -21 -23 -32 -21 -32
7 0 20 -53 70 -74 70 -8 0 -17 4 -21 9 -3 5 -22 7 -42 4 -35 -6 -36 -5 -29 20
5 20 -1 37 -20 67 -29 44 -34 47 -34 25z m41 -645 c23 -13 25 -43 3 -61 -19
-16 -99 -16 -148 1 -39 12 -46 24 -20 34 8 3 13 10 9 15 -11 19 123 28 156 11z
m-421 -1500 c0 -5 -2 -10 -4 -10 -3 0 -8 5 -11 10 -3 6 -1 10 4 10 6 0 11 -4
11 -10z"/>
<path d="M1088 2363 c6 -2 18 -2 25 0 6 3 1 5 -13 5 -14 0 -19 -2 -12 -5z"/>
<path d="M1705 2240 c-3 -5 3 -10 15 -10 12 0 18 5 15 10 -3 6 -10 10 -15 10
-5 0 -12 -4 -15 -10z"/>
<path d="M1986 1998 c10 -14 21 -24 23 -22 3 3 -6 15 -18 27 l-24 22 19 -27z"/>
<path d="M837 1291 c-2 -10 2 -36 9 -57 8 -21 14 -51 14 -66 0 -15 5 -30 10
-33 24 -15 5 -50 -67 -124 -132 -135 -149 -162 -133 -221 6 -22 13 -40 17 -40
12 0 79 45 115 77 21 18 48 35 60 37 63 13 106 14 146 5 35 -8 48 -7 61 4 35
32 82 49 97 36 7 -6 27 -12 44 -14 16 -1 35 -7 42 -12 19 -16 81 -24 98 -13
12 8 12 11 -1 27 -9 10 -30 44 -48 75 -18 32 -52 74 -77 94 -32 27 -44 44 -44
64 0 39 20 90 35 90 10 0 9 8 -3 35 -13 28 -25 38 -57 46 -35 10 -45 9 -77
-10 -46 -26 -66 -26 -98 -1 -35 28 -135 29 -143 1z m241 -267 c7 -2 10 -8 7
-14 -8 -13 -115 -13 -115 0 0 24 55 31 108 14z"/>
</g>
</svg>
